<?xml version="1.0" standalone="no"?>
<!DOCTYPE svg PUBLIC "-//W3C//DTD SVG 20010904//EN"
 "http://www.w3.org/TR/2001/REC-SVG-20010904/DTD/svg10.dtd">
<svg version="1.0" xmlns="http://www.w3.org/2000/svg"
 width="1000.000000pt" height="243.000000pt" viewBox="0 0 1000.000000 243.000000"
 preserveAspectRatio="xMidYMid meet">

<g transform="translate(0.000000,243.000000) scale(0.100000,-0.100000)"
fill="#000000" stroke="none">
<path d="M1454 1918 l-60 -63 61 -57 61 -58 59 60 60 60 -60 60 -60 60 -61
-62z"/>
<path d="M480 1797 l0 -94 84 -31 c45 -18 86 -32 90 -32 4 0 5 43 4 97 l-3 96
-67 23 c-36 12 -76 25 -87 29 -20 6 -21 3 -21 -88z"/>
<path d="M2465 1861 l-80 -28 -3 -96 c-1 -53 -1 -97 0 -97 2 0 41 16 88 35
l85 34 3 91 c1 49 -1 90 -5 89 -4 0 -44 -13 -88 -28z"/>
<path d="M1106 1430 c-20 -43 -36 -83 -36 -88 0 -5 15 -26 33 -48 19 -21 48
-59 65 -83 27 -37 33 -41 38 -25 4 11 22 56 39 101 l33 82 -61 70 c-33 39 -64
71 -67 71 -4 0 -24 -36 -44 -80z"/>
<path d="M1822 1442 l-63 -71 37 -100 37 -100 47 62 c26 34 54 68 63 76 24 20
21 38 -21 125 l-38 79 -62 -71z"/>
<path d="M1492 868 c-37 -124 -52 -209 -59 -325 l-6 -113 87 0 86 0 0 79 c0
88 -20 218 -51 331 -31 109 -33 110 -57 28z"/>
</g>
</svg>
