<?xml version="1.0" standalone="no"?>
<!DOCTYPE svg PUBLIC "-//W3C//DTD SVG 20010904//EN"
 "http://www.w3.org/TR/2001/REC-SVG-20010904/DTD/svg10.dtd">
<svg version="1.0" xmlns="http://www.w3.org/2000/svg"
 width="1000.000000pt" height="243.000000pt" viewBox="0 0 1000.000000 243.000000"
 preserveAspectRatio="xMidYMid meet">

<g transform="translate(0.000000,243.000000) scale(0.100000,-0.100000)"
fill="#000000" stroke="none">
<path d="M480 1796 l0 -93 33 -10 c17 -6 56 -20 85 -32 l52 -21 0 95 0 95 -36
15 c-20 8 -58 21 -85 29 l-49 15 0 -93z"/>
<path d="M3812 1158 l3 -733 147 -3 148 -3 2 382 3 382 175 -222 175 -221 51
0 52 0 178 223 179 222 3 -382 2 -383 145 0 145 0 0 735 0 735 -48 0 -47 0
-300 -385 c-165 -211 -304 -383 -309 -382 -5 2 -142 174 -305 382 l-297 380
-52 3 -52 3 2 -733z"/>
<path d="M5886 1514 c-203 -44 -379 -211 -431 -411 -19 -74 -19 -203 0 -277
48 -182 191 -335 373 -398 55 -18 88 -23 182 -23 144 0 226 23 334 96 421 281
293 910 -206 1013 -93 19 -160 19 -252 0z m213 -270 c60 -17 132 -78 161 -134
43 -83 43 -205 2 -287 -44 -86 -152 -153 -247 -153 -106 0 -217 77 -255 176
-59 160 15 345 160 394 68 24 111 25 179 4z"/>
<path d="M7954 1515 c-192 -42 -347 -201 -395 -405 -18 -77 -16 -232 5 -309
39 -151 140 -282 267 -345 90 -45 164 -60 269 -53 106 6 184 35 256 93 l54 44
0 -60 0 -60 135 0 135 0 0 540 0 540 -135 0 -135 0 0 -61 0 -62 -44 41 c-57
52 -112 80 -195 98 -80 17 -137 17 -217 -1z m292 -283 c100 -51 149 -151 142
-291 -5 -103 -26 -150 -92 -208 -53 -46 -101 -63 -182 -63 -196 0 -320 205
-250 409 23 68 94 141 157 164 61 23 170 17 225 -11z"/>
<path d="M7291 1510 c-59 -13 -119 -43 -168 -85 -23 -19 -44 -35 -47 -35 -3 0
-6 25 -6 55 l0 55 -135 0 -135 0 2 -537 3 -538 145 0 145 0 5 315 c6 353 9
371 78 431 53 47 97 62 197 68 l90 6 3 124 c1 68 -1 128 -6 133 -13 13 -123
18 -171 8z"/>
<path d="M1107 1427 l-38 -87 62 -77 c34 -43 64 -78 67 -78 2 0 17 32 31 70
15 39 33 80 39 92 11 19 5 29 -56 94 l-68 72 -37 -86z"/>
<path d="M1821 1433 c-34 -36 -60 -69 -59 -72 2 -3 19 -45 37 -94 19 -48 37
-84 41 -80 3 5 32 41 64 81 l59 72 -33 76 c-18 41 -36 77 -41 79 -4 3 -35 -25
-68 -62z"/>
<path d="M8840 1493 c0 -5 92 -232 204 -506 l204 -498 -33 -67 c-58 -122 -126
-159 -272 -149 l-83 6 0 -124 0 -123 50 -11 c75 -16 218 -14 280 5 97 29 175
93 238 198 19 30 154 328 301 663 l268 608 -145 3 c-81 1 -151 1 -157 -2 -6
-2 -71 -157 -145 -345 -74 -187 -137 -341 -140 -341 -3 0 -63 155 -134 345
l-128 345 -154 0 c-85 0 -154 -3 -154 -7z"/>
<path d="M1492 859 c-32 -107 -52 -220 -59 -331 l-6 -98 88 0 88 0 -6 113 c-6
109 -40 286 -69 356 l-14 35 -22 -75z"/>
</g>
</svg>
